<?xml version="1.0" encoding="utf-8"?>
<!-- Generator: Adobe Illustrator 19.2.1, SVG Export Plug-In . SVG Version: 6.00 Build 0)  -->
<svg version="1.1" xmlns="http://www.w3.org/2000/svg" xmlns:xlink="http://www.w3.org/1999/xlink" x="0px" y="0px"
	 viewBox="0 0 1400 980" style="enable-background:new 0 0 1400 980;" xml:space="preserve">
<style type="text/css">
	.st0{fill:#07A8BA;}
	.st1{fill:#069CAB;}
	.st2{fill:#FAB57D;}
	.st3{fill:#D19869;}
	.st4{fill:#FABB86;}
	.st5{fill:#002E3B;}
	.st6{fill:#164D59;}
	.st7{fill:#161730;}
	.st8{fill:#40A7FF;}
	.st9{opacity:7.000000e-002;}
	.st10{fill:#11121C;}
	.st11{fill:#171826;}
	.st12{fill:#2A2E45;}
	.st13{fill:#FFFFFF;}
	.st14{fill:#871919;}
	.st15{fill:#C92626;}
	.st16{opacity:0.21;}
	.st17{fill:#8C3221;}
	.st18{fill:#FFE96E;}
	.st19{fill:#C2B153;}
	.st20{fill:#B04028;}
	.st21{opacity:0.38;}
	.st22{fill:#EDCEAF;}
	.st23{fill:#754624;}
	.st24{fill:#94582D;}
	.st25{fill:#422815;}
	.st26{opacity:0.16;}
	.st27{fill:#E88C4A;}
	.st28{fill:#F19A5C;}
	.st29{fill:#4F9C42;}
	.st30{fill:#9C3824;}
	.st31{fill:#D44D31;}
	.st32{fill:#FFE270;}
	.st33{fill:#64C552;}
	.st34{fill:#F1D1BC;}
	.st35{fill:#004E63;}
	.st36{fill:#FAD4B4;}
	.st37{fill:#8A664A;}
	.st38{fill:#CFFAFF;}
	.st39{fill:#003A4A;}
	.st40{fill:#17477A;}
	.st41{fill:#E0E0E0;}
	.st42{opacity:0.15;}
	.st43{fill:#F5A985;}
	.st44{fill:#D19071;}
	.st45{fill:#2D2D3C;}
	.st46{fill:#99D4FF;}
	.st47{font-family:'Lato-Black';}
	.st48{font-size:27.4858px;}
	.st49{fill:#D94023;}
	.st50{fill:#9C2D19;}
	.st51{font-size:32.1027px;}
	.st52{opacity:0.18;}
	.st53{fill:#C7C7C7;}
	.st54{fill:#363636;}
	.st55{fill:#FFA245;}
	.st56{fill:#E6913E;}
	.st57{fill:#EE4727;}
	.st58{fill:#C93C21;}
	.st59{fill:#752313;}
	.st60{fill:#42140B;}
	.st61{fill:#62CF57;}
	.st62{fill:#FBCD4E;}
	.st63{fill:#FBC42B;}
	.st64{fill:#FFCD9C;}
	.st65{fill:#44445C;}
	.st66{fill:#5E5E80;}
	.st67{fill:#F5DED3;}
	.st68{fill:#3370BD;}
	.st69{fill:#11243D;}
	.st70{fill:#0A1524;}
	.st71{fill:#E6E6E6;}
</style>
<g id="Layer_2">
</g>
<g id="Layer_1">
	<g>
		<!-- <rect x="2" class="st40" width="1400" height="980"/> -->
		<g>
			<circle class="st13" cx="707" cy="515.4" r="399.4"/>
			<circle class="st41" cx="707" cy="515.4" r="216.1"/>
			<path class="st41" d="M707,186c-181.9,0-329.3,147.4-329.3,329.3S525.1,844.7,707,844.7s329.3-147.4,329.3-329.3
				S888.9,186,707,186z M712.5,824.6c-170.8,3.1-311.7-132.9-314.8-303.7c-3.1-170.8,132.9-311.7,303.7-314.8
				s311.7,132.9,314.8,303.7C1019.3,680.6,883.3,821.6,712.5,824.6z"/>
		</g>
		<path class="st42" d="M1065.1,823.8l-14,7l-11.1-16.1c59.3-69.7,95-160,95-258.6c0-117.6-50.8-223.3-131.6-296.3
			c64,70.8,103,164.7,103,267.7c0,98.5-35.7,188.7-94.9,258.4c-14.4-55.8-10.9-126.2-33.3-174.3c-47-100.6-75.6-147.9-97.4-183.7
			c0,0,0,0,0,0c-0.4-0.6-0.7-1.2-1.1-1.7c-0.2-0.3-0.4-0.5-0.5-0.8c-0.2-0.3-0.4-0.6-0.6-0.9c-0.2-0.3-0.5-0.7-0.8-1
			c-0.2-0.2-0.3-0.4-0.5-0.6c-0.3-0.4-0.6-0.7-0.9-1.1c0,0-0.1-0.1-0.1-0.1V320.6c0-16.1-13.1-29.2-29.2-29.2H640.9
			c-16.1,0-29.2,13.1-29.2,29.2v187c0,0,0,0-0.1,0c-0.1,0-0.1,0-0.2,0.1c-1.2,0.3-2.4,0.6-3.6,1c-0.2,0.1-0.4,0.1-0.6,0.2
			c-1.1,0.3-2.2,0.7-3.3,1.1c-0.1,0-0.2,0.1-0.3,0.1c-23.5,8.2-35.3,24.2-32.4,40.7c1.7,9.7,7.4,17.9,19.4,22.4c0,0,0,0,0.1,0
			c0.4,0.2,0.8,0.3,1.2,0.4c0,0,0.1,0,0.1,0c0.4,0.1,0.8,0.3,1.3,0.4c0,0,0.1,0,0.1,0c0.4,0.1,0.9,0.3,1.3,0.4c0,0,0,0,0.1,0
			c3.3,0.9,7,1.6,11.2,2c0.1,0,0.2,0,0.2,0c0.5,0,1,0.1,1.5,0.1c0.1,0,0.2,0,0.3,0c0.5,0,1,0.1,1.5,0.1c0.1,0,0.3,0,0.4,0
			c0.5,0,0.9,0,1.4,0.1c0.1,0,0.2,0,0.3,0v11.7c-0.7,0.2-1.3,0.4-2,0.5c-0.3,0.1-0.5,0.1-0.8,0.2c-1,0.3-1.9,0.6-2.9,0.9
			c-0.3,0.1-0.6,0.2-0.8,0.3c-0.7,0.2-1.4,0.5-2.1,0.7c-0.3,0.1-0.6,0.2-0.9,0.3c-0.9,0.3-1.7,0.6-2.6,0.9c-0.3,0.1-0.5,0.2-0.8,0.3
			c-0.6,0.2-1.2,0.5-1.8,0.7c-0.3,0.1-0.6,0.3-1,0.4c-0.6,0.3-1.2,0.6-1.9,0.8c-0.3,0.2-0.7,0.3-1,0.5c-0.6,0.3-1.1,0.6-1.7,0.8
			c-0.3,0.2-0.6,0.3-0.9,0.5c-0.5,0.3-0.9,0.5-1.4,0.8c-17.2,9.7-23.4,23-22.8,36.8c0,0.2,0,0.4,0,0.6c0.7,12.8,10.7,20.6,23.8,23.4
			c0,0,0.1,0,0.1,0c1.5,0.3,3.1,0.6,4.7,0.7c0.1,0,0.2,0,0.3,0c0.7,0.1,1.4,0.1,2.1,0.2c0.1,0,0.2,0,0.3,0c0.8,0,1.6,0.1,2.4,0.1
			c0.1,0,0.2,0,0.3,0c0.7,0,1.4,0,2,0c0.2,0,0.4,0,0.6,0c0.8,0,1.6-0.1,2.4-0.1c2.1-0.1,4.1-0.3,6.1-0.5v29.8l-2.7,0.6
			c-0.7,0.2-1.3,0.3-1.9,0.5c-0.5,0.2-1,0.3-1.5,0.5c-0.1,0-0.2,0.1-0.3,0.1c-19.5,6.7-31.6,26.8-27.5,46.7l0,0
			c0.8,3.8,2.4,7.1,4.7,10l0,0c0,0,0,0,0,0c0.3,0.4,0.7,0.8,1,1.2c0.1,0.1,0.1,0.2,0.2,0.2c0.3,0.4,0.7,0.7,1.1,1.1c0,0,0,0,0,0
			c0.4,0.4,0.8,0.7,1.2,1c0.1,0.1,0.2,0.1,0.2,0.2c0.4,0.3,0.7,0.6,1.1,0.8c0.1,0,0.1,0.1,0.2,0.1c0.4,0.3,0.9,0.6,1.3,0.8
			c0.1,0,0.1,0.1,0.2,0.1c0.4,0.2,0.8,0.4,1.2,0.6c0.1,0,0.2,0.1,0.3,0.1c0.5,0.2,0.9,0.4,1.4,0.6c0,0,0.1,0,0.1,0
			c0.4,0.2,0.9,0.3,1.3,0.5c0.1,0,0.2,0.1,0.3,0.1c0.5,0.2,1,0.3,1.5,0.4c0,0,0,0,0,0c0.5,0.1,1,0.2,1.5,0.3c0.1,0,0.3,0,0.4,0.1
			c0.4,0.1,0.9,0.1,1.3,0.2c0.1,0,0.2,0,0.3,0c0.5,0.1,1,0.1,1.6,0.1c0.1,0,0.2,0,0.4,0c0.4,0,0.9,0,1.3,0c0.1,0,0.3,0,0.4,0
			c0.5,0,1.1,0,1.6-0.1c0.1,0,0.2,0,0.3,0c0.5,0,0.9-0.1,1.4-0.2c0.1,0,0.3,0,0.4-0.1c0.5-0.1,1.1-0.2,1.6-0.3l4.2-1
			c0.9,15.3,13.6,27.5,29.2,27.5h60.5c1.2,1.5,2.3,3,3.5,4.5c0,0,0,0,0,0c28.5,35.3,63.5,64.7,102.1,82.4
			c15.4,7.1,28.4,17.7,39.2,29.7l-13.9,7l0.6,1.6c-39.6,13.1-81.9,20.3-125.9,20.3c-103,0-196.9-39-267.7-103
			c73.1,80.8,178.8,131.6,296.3,131.6c29.9,0,59.1-3.3,87.2-9.5l16.2,32.3l98.5,0h0l228.7,0L1065.1,823.8z"/>
		<g>
			<g>
				<g>
					<path class="st43" d="M1030.4,897.1c-12.3-16.7-47.7-61.8-56.5-80.5c-27.6-58.3-17.3-147.6-44.2-205.1
						c-47-100.6-75.6-147.9-97.4-183.7c-6-9.8-15.3-17.1-26.3-20.5l-18.5-5.6v157.9c0,0-223.1,32.6-187.6,127.4
						c28.6,76.3,87.5,148.5,158.7,181.1c60.2,27.6,82.9,109.5,82.9,109.5l238.9-22.5L1030.4,897.1z"/>
					<path class="st44" d="M910.5,699.2c0-50.7-68.4-129.2-68.4-129.2s-4.3-133.2-9.7-142.2c-2.8-4.6-6.3-8.6-10.3-11.9v216.2
						C822,632.2,910.5,749.9,910.5,699.2z"/>
					<path class="st44" d="M833.9,863.3c0,0-30.8-152.8-84.8-194.5c-54-41.7-105.5,4.9-134.9,45.5c-0.6,0.8-1.1,1.6-1.6,2.4
						c13.5,27.9,30.9,54.5,51.3,78.1c0-0.1,45-11.5,78.1-7.2c24.1,3.1,46.8,7,61.9,36.3C816,847,833.9,863.3,833.9,863.3z"/>
				</g>
				<g>
					<path class="st43" d="M624.4,711.6l0.4,1.8c2.8,13.4-6.1,26.9-19.7,30.2l-46,11.2c-13.7,3.3-27-4.8-29.7-18.2l0,0
						c-4.4-21.2,9.6-42.6,31.3-47.8l19-4.6C600.2,679.2,620.2,691.5,624.4,711.6z"/>
					<path class="st44" d="M624.8,713.5l-0.4-1.8c-4.2-20.1-24.2-32.4-44.8-27.4l-19,4.6c-2.6,0.6-5,1.5-7.4,2.5
						c6.1,5,10.5,11.9,12.2,20.3l0.4,1.8c2.8,13.4-6.1,26.9-19.7,30.2l-12.1,2.9c5.7,7.1,15.3,10.6,25.1,8.2l46-11.2
						C618.7,740.3,627.5,726.8,624.8,713.5z"/>
					<path class="st43" d="M581.1,504.7c24.7-2,46.9,14.8,49.7,39.4l0,0c1.8,15.5-7.4,24.4-22.7,27.6c-60.4,12.8-81.7-0.7-85.3-21.2
						C518.9,529,540.8,508,581.1,504.7z"/>
					<path class="st44" d="M630.8,544.2L630.8,544.2c-2.8-24.6-25-41.5-49.7-39.4c-12.9,1.1-24,3.9-32.8,8.1c10.2,7,17.4,18,19,31.4
						h0c1.8,15.5-7.4,24.4-22.7,27.6c-1.2,0.2-2.3,0.5-3.5,0.7c13.2,5.4,34.4,6.2,67.1-0.7C623.4,568.6,632.6,559.7,630.8,544.2z"/>
					<path class="st43" d="M576,585.7c25.7-4.5,49.9,8.8,54.4,31.1v0c2.9,14.1-7.9,28.2-24,31.4c0,0-19.7,8.6-49.2,10.7
						c-19.9,1.4-38.1-6.9-39.1-24.3c0-0.2,0-0.4,0-0.6C517.1,613.2,531.6,593.5,576,585.7z"/>
					<path class="st44" d="M630.4,616.8L630.4,616.8c-4.5-22.3-28.7-35.6-54.4-31.1c-15.4,2.7-27.1,6.8-35.9,11.9
						c11.4,5.3,19.9,14.9,22.4,27.2v0c2.9,14.1-7.9,28.2-24,31.4c0,0-0.4,0.2-1.1,0.5c6,1.9,12.8,2.7,19.9,2.2
						c29.5-2.1,49.2-10.7,49.2-10.7C622.5,645,633.2,630.9,630.4,616.8z"/>
				</g>
			</g>
			<g>
				<path class="st45" d="M592.5,291.4h206.1c16.1,0,29.2,13.1,29.2,29.2V752c0,16.1-13.1,29.2-29.2,29.2H592.5
					c-16.1,0-29.2-13.1-29.2-29.2V320.6C563.3,304.5,576.3,291.4,592.5,291.4z"/>
				
					<rect x="579.4" y="345.5" transform="matrix(-1 4.489286e-011 -4.489286e-011 -1 1391.0594 1072.64)" class="st46" width="232.3" height="381.7"/>
				<g>
					<text transform="matrix(1 0 0 1 604.979 399.5627)" class="st45 st47 st48">FOOD ORDER</text>
				</g>
				<polygon class="st9" points="811.7,345.5 579.4,727.2 811.7,727.2 				"/>
				<g>
					<g>
						<path class="st49" d="M753.9,641.6H638.4c-14.4,0-26,11.7-26,26v0c0,14.4,11.7,26,26,26h115.5c14.4,0,26-11.7,26-26v0
							C780,653.3,768.3,641.6,753.9,641.6z"/>
						<path class="st50" d="M753.9,693.7H638.4c-13.5,0-24.7-10.3-25.9-23.5c-0.1,0.8-0.1,1.7-0.1,2.5v0c0,14.4,11.7,26,26,26h115.5
							c14.4,0,26-11.7,26-26v0c0-0.8,0-1.7-0.1-2.5C778.6,683.4,767.5,693.7,753.9,693.7z"/>
					</g>
					<text transform="matrix(1 0 0 1 640.4331 679.2668)" class="st13 st47 st51">ORDER</text>
				</g>
				<g>
					<path class="st52" d="M789.2,584.7c0-6.2-26.4-11.2-58.9-11.2s-58.9,5-58.9,11.2c0,0,0,0,0,0c-38.2,0.5-68.2,6.6-68.2,14
						c0,7.7,33.1,14,73.8,14c40.8,0,73.8-6.3,73.8-14c0-1.2-0.8-2.3-2.2-3.4C772.2,593.8,789.2,589.6,789.2,584.7z"/>
					<g>
						<g>
							<path class="st49" d="M711.5,481l8.1,101.5c0,3,12,5.5,26.9,5.5s26.9-2.4,26.9-5.5l8.1-101.5H711.5z"/>
							<path class="st53" d="M785.7,481.8l-5.8-14.8h-66.7l-5.8,14.8c-0.3,0.4-0.5,0.8-0.5,1.3c0,4.5,17.8,8.1,39.7,8.1
								s39.7-3.6,39.7-8.1C786.2,482.7,786,482.2,785.7,481.8z"/>
							<ellipse class="st41" cx="746.5" cy="467" rx="33.3" ry="6.8"/>
							<g>
								<ellipse class="st53" cx="746.5" cy="466.6" rx="27.9" ry="4.6"/>
							</g>
							<g>
								<ellipse class="st54" cx="746.5" cy="466.6" rx="6.3" ry="1.5"/>
							</g>
							<g>
								<path class="st13" d="M743,419.7v46.9c0,0.4,1.6,0.7,3.5,0.7s3.5-0.3,3.5-0.7v-46.9H743z"/>
								<path class="st49" d="M743.9,467.1c0.3,0.1,0.7,0.1,1.1,0.2v-47.6h-1.1V467.1z"/>
								<path class="st49" d="M749.1,467.1c-0.3,0.1-0.7,0.1-1.1,0.2v-47.6h1.1V467.1z"/>
								<ellipse class="st53" cx="746.5" cy="419.7" rx="3.5" ry="0.8"/>
							</g>
							<path class="st13" d="M713.5,506.6l4.2,52.1c19.1,2.7,38.4,2.8,57.5,0.3l4.2-52C757.6,511.4,735.2,511.2,713.5,506.6z"/>
						</g>
						<path class="st52" d="M739.8,580.3L739.8,580.3C739.8,580.3,739.8,580.3,739.8,580.3c0-0.2,0-0.4,0-0.6c0,0,0-0.1,0-0.1
							c0-0.2,0-0.3,0-0.5c0,0,0-0.1,0-0.1c0-0.2,0-0.3-0.1-0.5c0,0,0,0,0-0.1c0-0.2,0-0.4-0.1-0.5c0,0,0,0,0,0
							c0-0.2-0.1-0.4-0.1-0.5c0,0,0,0,0,0c-0.1-0.6-0.3-1.1-0.5-1.7v0c-0.7-2-1.9-3.7-3.3-5c2.1-1,3.6-3.4,3.6-6.3v-7
							c0-3.7-2.5-6.7-5.6-6.7h-2.3h-0.1c3.8,0,6.8-3.1,6.8-6.8c0-3-1.9-5.5-4.6-6.5c0.2-0.5,0.5-1.1,0.7-1.6
							c3.3-1.9,5.5-5.9,5.5-10.6c0-0.3,0-0.6,0-0.9c0-0.1,0-0.2,0-0.3c0-0.2,0-0.4,0-0.6c0-0.1,0-0.3,0-0.4c0-0.2,0-0.3,0-0.5
							c0-0.1,0-0.3,0-0.4c0-0.1,0-0.3-0.1-0.4c0-0.2,0-0.3-0.1-0.5c0-0.1,0-0.3-0.1-0.4c0-0.2-0.1-0.3-0.1-0.5c0-0.1,0-0.2-0.1-0.3
							c-2.2-11.5-11.8-21.4-26.9-27.1l1.1,13.7l4.2,52.1h0l1.9,23.7c0,2.4,7.9,4.5,18.8,5.2C739.3,585.5,739.8,583.1,739.8,580.3z"
							/>
						<g>
							<path class="st55" d="M675,600.8c33.9,0,59.5,0.2,59.5-20.5l0,0c0-6.5-4.4-11.8-9.7-11.8h-99.4c-5.4,0-9.7,5.3-9.7,11.8l0,0
								C615.5,601.1,638.5,600.8,675,600.8z"/>
							<path class="st56" d="M675,590.5c-32.6,0-54.5,0.2-58.7-14.7c-0.5,1.4-0.7,2.9-0.7,4.5c0,20.8,23,20.5,59.5,20.5
								c33.9,0,59.5,0.2,59.5-20.5c0-1.6-0.3-3.2-0.8-4.6C729.1,590.6,705.4,590.5,675,590.5z"/>
							<path class="st57" d="M725.9,537h-97.9c-3.8,0-6.8,3.1-6.8,6.8s3.1,6.8,6.8,6.8h97.9c3.8,0,6.8-3.1,6.8-6.8
								S729.7,537,725.9,537z"/>
							<path class="st58" d="M675.2,537H624c-3.8,0-6.8,3.1-6.8,6.8s3.1,6.8,6.8,6.8h51.2c3.8,0,6.8-3.1,6.8-6.8S679,537,675.2,537z
								"/>
							<path class="st59" d="M728.3,550.7H621.6c-3.1,0-5.6,3-5.6,6.7v7c0,3.7,2.5,6.7,5.6,6.7h106.7c3.1,0,5.6-3,5.6-6.7v-7
								C733.8,553.7,731.4,550.7,728.3,550.7z"/>
							<g>
								<path class="st60" d="M664.3,563.1c0.1-0.1,0.2-0.2,0.4-0.3c0.3-0.2,0.4-0.4,0.5-0.7c0.1-0.3,0-0.7-0.1-0.9
									c-0.2-0.3-0.4-0.4-0.7-0.5c-0.4-0.1-0.7-0.1-1,0.1c-0.7,0.3-1.1,1-0.8,1.7C662.8,563.2,663.7,563.6,664.3,563.1L664.3,563.1
									z"/>
							</g>
							<g>
								<path class="st60" d="M670.7,559.2c0.1-0.2,0.2-0.3,0.2-0.5c0.2-0.6-0.5-1.3-1.1-1.1c-0.2,0.1-0.4,0.2-0.5,0.2
									c-0.6,0.3-0.6,1.1-0.2,1.6C669.6,559.9,670.4,559.8,670.7,559.2L670.7,559.2z"/>
							</g>
							<g>
								<path class="st60" d="M679.6,560.5c0.9,0,0.9-1.5,0-1.5C678.7,559,678.7,560.5,679.6,560.5L679.6,560.5z"/>
							</g>
							<g>
								<path class="st60" d="M717.2,564.2c0.3-0.6,0.4-1.2,0-1.8c-0.2-0.4-0.8-0.7-1.2-0.5c-0.3,0.1-0.5,0.2-0.7,0.4
									c-0.2,0.2-0.4,0.5-0.4,0.8c-0.1,0.6,0.1,1.3,0.7,1.5C716.1,565,716.9,564.8,717.2,564.2L717.2,564.2z"/>
							</g>
							<g>
								<path class="st60" d="M722.3,559.5c0.2-0.2,0.4-0.4,0.5-0.7c0.3-0.4,0.2-1-0.2-1.3c-0.3-0.3-0.9-0.4-1.3-0.2
									c-0.2,0.2-0.4,0.4-0.7,0.5c-0.5,0.4-0.4,1.2,0,1.6C721.2,559.9,721.9,560,722.3,559.5L722.3,559.5z"/>
							</g>
							<g>
								<path class="st60" d="M727.5,555.1c0.5,0,1-0.5,1-1c0-0.6-0.4-1-1-1c-0.5,0-1,0.5-1,1C726.5,554.6,726.9,555.1,727.5,555.1
									L727.5,555.1z"/>
							</g>
							<g>
								<path class="st60" d="M636.7,563.4c0.3-0.3,0.6-0.5,0.8-0.8c0.3-0.5,0.5-1.2,0-1.7c-0.5-0.4-1.1-0.4-1.6,0
									c-0.3,0.2-0.6,0.5-0.9,0.8c-0.4,0.5-0.5,1.2,0,1.7C635.5,563.9,636.2,563.9,636.7,563.4L636.7,563.4z"/>
							</g>
							<g>
								<path class="st60" d="M649.4,562.5c-0.1,0-0.1-0.1-0.1-0.1c0.1,0.1,0.3,0.3,0.4,0.4c0-0.1-0.1-0.1-0.1-0.2
									c-0.3-0.5-0.8-0.7-1.4-0.4c-0.5,0.2-0.8,0.8-0.6,1.3c0,0.1,0,0.1,0.1,0.2c0-0.1,0-0.2,0-0.3c0,0.1,0,0.1,0,0.2
									c0,0.9,1.1,1.5,1.9,1.1c0.4-0.2,0.6-0.6,0.6-1.1C650,563.1,649.8,562.8,649.4,562.5L649.4,562.5z"/>
							</g>
							<g>
								<path class="st60" d="M628.5,558.7c0.1-0.1,0.2-0.1,0.3-0.2c0.3-0.2,0.5-0.4,0.6-0.7c0.2-0.6-0.2-1.1-0.7-1.3
									c-0.4-0.1-0.7,0-1,0.1c-0.7,0.2-1,0.9-0.8,1.6C627.1,558.7,627.9,559.1,628.5,558.7L628.5,558.7z"/>
							</g>
							<path class="st61" d="M619.5,531.6c0,0-0.2,17.4,10,17.6c10.2,0.2,13.1-9,18.4-6.4c5.3,2.7,5.2,1.1,17-2.4
								c5.5-1.6,8.4-0.8,12.7,4.5s8.1,4.5,14.9,0.5c6.8-4,14.7-8.2,24.7-0.5c7.5,5.7,13.2-13.4,13.2-13.4H619.5z"/>
							<path class="st55" d="M675,487.6c-33.9,0-59.5,16.8-59.5,37.6l0,0c0,6.5,4.4,11.8,9.7,11.8h99.4c5.4,0,9.7-5.3,9.7-11.8l0,0
								C734.4,504.4,711.4,487.6,675,487.6z"/>
							<path class="st56" d="M724.7,525.8h-99.4c-4,0-7.4-2.9-8.9-7c-0.5,2.1-0.8,4.2-0.8,6.4c0,6.5,4.4,11.8,9.7,11.8h99.4
								c5.4,0,9.7-5.3,9.7-11.8c0-2.2-0.3-4.4-0.8-6.5C732.1,522.9,728.7,525.8,724.7,525.8z"/>
							<path class="st62" d="M623.9,550.7c0,0,16.4,12.3,22.8,12.3s21.9-8.2,27.6-8.2c5.7,0,17.6,12.3,25.3,12.3
								s26.4-16.4,26.4-16.4H623.9z"/>
							<path class="st63" d="M699.6,562.3c-6.6,0-16.3-9.1-22.5-11.7h-6.6c-7,2-18.5,7.5-23.7,7.5c-3.7,0-10.7-4.1-16-7.5h-6.8
								c0,0,16.4,12.3,22.8,12.3s21.9-8.2,27.6-8.2c5.7,0,17.6,12.3,25.3,12.3s26.4-16.4,26.4-16.4h-5.8
								C714.1,555.5,704.5,562.3,699.6,562.3z"/>
							<g>
								<g>
									<path class="st64" d="M661.5,497.1c0.7,0,0.7-1.3,0-1.3C660.8,495.8,660.8,497.1,661.5,497.1L661.5,497.1z"/>
								</g>
								<g>
									<path class="st64" d="M672.1,495c1.7,0,1.7-3.2,0-3.2C670.4,491.8,670.4,495,672.1,495L672.1,495z"/>
								</g>
								<g>
									<path class="st64" d="M671.4,503.4c0.6,0,1.3-0.7,1.2-1.5c0-0.8-0.5-1.5-1.2-1.5c-0.6,0-1.3,0.7-1.2,1.5
										C670.2,502.7,670.8,503.4,671.4,503.4L671.4,503.4z"/>
								</g>
								<g>
									<path class="st64" d="M682.3,497.3c1.3,0,1.3-2.4,0-2.4C681,494.9,681,497.3,682.3,497.3L682.3,497.3z"/>
								</g>
								<g>
									<path class="st64" d="M694.8,496.7c0.1-0.1,0.3-0.2,0.4-0.3c0.4-0.6,0.4-1.4,0-2c-0.1-0.1-0.2-0.2-0.4-0.3
										c-0.8-0.6-2,0.2-2,1.4C692.8,496.5,693.9,497.3,694.8,496.7L694.8,496.7z"/>
								</g>
								<g>
									<path class="st64" d="M698.9,504.5c0.6,0,1.2-0.7,1.2-1.5c0-0.8-0.5-1.5-1.2-1.5c-0.6,0-1.2,0.7-1.2,1.5
										C697.7,503.8,698.2,504.5,698.9,504.5L698.9,504.5z"/>
								</g>
								<g>
									<path class="st64" d="M647.8,502.1c1.9,0,1.9-3.5,0-3.5C645.9,498.6,645.9,502.1,647.8,502.1L647.8,502.1z"/>
								</g>
								<g>
									<path class="st64" d="M710.1,502.1c1.5,0,1.5-2.8,0-2.8C708.6,499.3,708.6,502.1,710.1,502.1L710.1,502.1z"/>
								</g>
								<g>
									<path class="st64" d="M637.3,509.3c0.1-0.1,0.1-0.1,0.2-0.2c0.1-0.2,0.2-0.4,0.3-0.6c0.2-0.8-0.5-1.7-1.2-1.4
										c-0.2,0.1-0.4,0.2-0.5,0.4c-0.1,0.1-0.1,0.1-0.2,0.2c-0.4,0.4-0.4,1.3,0,1.7C636.3,509.7,636.9,509.8,637.3,509.3
										L637.3,509.3z"/>
								</g>
								<g>
									<path class="st64" d="M663.1,508.5c0.3,0,0.7-0.2,1-0.5c0.2-0.3,0.4-0.7,0.4-1.2c0-0.9-0.6-1.6-1.4-1.6
										c-0.3,0-0.7,0.2-1,0.5c-0.2,0.3-0.4,0.7-0.4,1.2C661.8,507.8,662.4,508.5,663.1,508.5L663.1,508.5z"/>
								</g>
								<g>
									<path class="st64" d="M688.9,508.4c0.1-0.1,0.3-0.2,0.4-0.2c0.6-0.4,0.6-1.4,0-1.8c-0.1-0.1-0.3-0.2-0.4-0.2
										c-0.4-0.2-0.8-0.3-1.1,0c-0.3,0.2-0.5,0.7-0.5,1.2s0.2,0.9,0.5,1.2C688.2,508.7,688.6,508.6,688.9,508.4L688.9,508.4z"/>
								</g>
								<g>
									<path class="st64" d="M707.9,509.7c1.4,0,1.4-2.6,0-2.6C706.5,507.1,706.5,509.7,707.9,509.7L707.9,509.7z"/>
								</g>
							</g>
						</g>
					</g>
				</g>
				<path class="st9" d="M811.7,567.2c-4-5.2-9.7-8.9-16.1-10.4l-87.1-21.3c-6.1-1.5-12.4,1.9-14.4,7.9l0,0
					c-7.1,20.7,1.8,43.4,21.1,53.7l48.5,25.9c3.1,1.6,5.3,4.5,6.1,7.9l13.5,55.3c3.3,13.5,5.5,27.2,6.5,41h21.8V567.2z"/>
				<path class="st65" d="M663.3,315.9h64.4c3,0,5.4,2.4,5.4,5.4c0,3-2.4,5.4-5.4,5.4h-64.4c-3,0-5.4-2.4-5.4-5.4
					C657.9,318.4,660.4,315.9,663.3,315.9z"/>
				<circle class="st65" cx="695.5" cy="751.3" r="15.6"/>
				<path class="st66" d="M695,742.5c-7,0-13,4.7-14.9,11.1c-0.1-0.8-0.2-1.5-0.2-2.3c0-8.6,7-15.6,15.6-15.6s15.6,7,15.6,15.6
					c0,1.6-0.2,3.1-0.7,4.5C709.4,748.3,702.9,742.5,695,742.5z"/>
			</g>
			<g>
				<g>
					<path class="st43" d="M874.7,630.7l-61.8-81.5c-4.4-5.8-10.9-9.8-18.1-11l-88.3-15.4c-6.2-1.1-12.2,2.7-13.8,8.8l0,0
						c-5.7,21.1,4.7,43.2,24.6,52.2l50.2,22.6c3.2,1.4,5.6,4.1,6.6,7.4l17.1,54.3c6.2,19.7,10,40.1,11.3,60.8l1.4,22.2
						c3.4,54.5,21.9,106.9,53.6,151.4l2.9,4c5.2,7.4,16.4,6.7,20.7-1.3l13.2-24.6C937.1,800.6,929.5,703,874.7,630.7z"/>
					<path class="st67" d="M711.1,523.5L711.1,523.5c0,0-9.5,17.2,4,21.7c15.5,5.1,30.1,3.4,35.6-8.8c0.9-2.1,1.7-3.9,2.4-5.5
						L711.1,523.5z"/>
				</g>
				<g>
					<g>
						<g>
							<g>
								<polygon class="st68" points="799.8,946.2 783.9,904.8 983.9,803.5 1010.3,841.8 								"/>
							</g>
						</g>
					</g>
					<polygon class="st69" points="1117.7,978.1 1016.7,823.8 773.6,944.3 790.5,978.2 					"/>
					<polygon class="st70" points="889,978.2 850.1,906.4 773.6,944.3 790.5,978.1 					"/>
				</g>
			</g>
		</g>
		<g>
			<g>
				<path fill="gainsboro" d="M1242,858.6L1242,858.6c13.4-1.7,22.8-13.9,21.1-27.3l-40.2-313.2l-28.5,3.7l20.2,314.2
					C1215.5,850,1228.1,860.4,1242,858.6z"/>
				<path fill="gainsboro" d="M1151.6,396.7l5.5-158.4c0.5-13.8,4.7-27.3,12.1-39l0,0c3.6-5.7,12.4-3.7,13.2,3l43.6,339.9
					c0.5,3.9-2.3,7.6-6.2,8.1l-27.4,3.5c-5.2,0.7-10.4-1.5-13.4-5.7C1152.6,512,1150.1,439.5,1151.6,396.7z"/>
			</g>
			<g>
				<path fill="gainsboro" d="M274.2,390.5l-32.8-6.4l-90.1,425.3c-2.8,13.1,5.7,25.9,18.8,28.4c13.1,2.6,25.8-6.1,28.1-19.3
					L274.2,390.5z"/>
				<path fill="gainsboro" d="M315.6,324.9l13.4-88.3c0.5-3.1-1.6-5.9-4.6-6.5l-0.9-0.2c-3.2-0.6-6.3,1.6-6.8,4.8l-13.7,90.2
					c-0.5,3.2-3.6,5.4-6.8,4.8l-2.5-0.5c-3.1-0.6-5.2-3.6-4.6-6.8l17.5-90c0.6-3.1-1.4-6.2-4.6-6.8l-1-0.2c-3.1-0.6-6.2,1.4-6.8,4.6
					l-17.5,90c-0.6,3.1-3.6,5.2-6.8,4.6c-3.1-0.6-5.2-3.6-4.6-6.8l17.5-90c0.6-3.1-1.4-6.2-4.6-6.8l-1-0.2c-3.1-0.6-6.2,1.4-6.8,4.6
					l-17.5,90c-0.6,3.1-3.6,5.2-6.8,4.6l-2.5-0.5c-3.2-0.6-5.3-3.8-4.5-7l21.1-88.8c0.8-3.2-1.3-6.4-4.5-7l-0.9-0.2
					c-3-0.6-6,1.3-6.7,4.3l-20.7,86.9c-1.3,5.5-2.3,11-3,16.5l-10.3,70.9c-3.2,21.8,11.3,42.2,32.9,46.4l0,0
					c21.6,4.2,42.7-9.3,47.9-30.6l17-69.6C313.6,335.9,314.7,330.4,315.6,324.9z"/>
			</g>
		</g>
	</g>
</g>
</svg>
